<svg width="75" height="36" viewBox="0 0 96 44" xmlns="http://www.w3.org/2000/svg" xmlns:xlink="http://www.w3.org/1999/xlink"><defs><path id="a" d="M0 .164h95.647v43.272H0z"/></defs><g fill="none" fill-rule="evenodd"><path fill="#E4EEF3" d="M81.913 18.68h-.634v.095h.253v.728h.127v-.728h.254zM61.578 29.343v-13.81h-2.074v5.758h-6.319v-5.758h-2.06v13.81h2.06V23.3h6.319v6.043zM63.13 19.33v5.441c0 1.661.301 2.88.92 3.592.585.695 1.535 1.06 2.833 1.09h.476c1.298-.03 2.249-.395 2.835-1.09.585-.697.918-1.93.918-3.592V19.33h-1.964v5.442h.016c0 1.029-.158 1.756-.459 2.167-.285.38-.792.586-1.52.586h-.096c-.728 0-1.25-.206-1.536-.586-.3-.41-.459-1.138-.459-2.167V19.33H63.13zm12.21 2.293c.412-.427 1.062-.617 1.885-.617.839 0 1.473.206 1.9.633.428.427.65 1.139.65 2.12v1.123c0 .807-.222 1.471-.682 1.946-.459.474-1.076.711-1.868.711-.791 0-1.425-.237-1.853-.71-.427-.476-.665-1.125-.665-1.947v-1.139c0-.98.222-1.693.633-2.12zm-2.628-6.059v9.302c0 1.36.411 2.484 1.219 3.323.808.838 1.916 1.265 3.31 1.265 1.393 0 2.518-.427 3.326-1.265.807-.84 1.219-1.962 1.219-3.323v-1.123c-.016-3.1-1.552-4.683-4.561-4.683-1.061 0-1.9.333-2.518.965v-4.46h-1.995zm-59.863 9.682v.206a3.432 3.432 0 001.441 2.879c.95.696 2.265 1.06 3.943 1.06 1.68 0 3.04-.349 3.975-1.06a3.392 3.392 0 001.441-2.88v-.284a3.209 3.209 0 00-.696-2.072 3.997 3.997 0 00-1.869-1.234l-4.799-1.598a1.98 1.98 0 01-.76-.443.767.767 0 01-.269-.538v-.316c0-1.124.934-1.693 2.85-1.725h.175c1.916 0 2.898.507 3.009 1.535l.016.158h2.058v-.174c-.095-2.341-1.805-3.544-5.083-3.544h-.206c-3.215.032-4.83 1.297-4.83 3.75v.316a2.768 2.768 0 00.633 1.788c.412.49 1.03.87 1.806 1.123l4.75 1.597c.808.269 1.204.713 1.204 1.377v.285c0 .585-.285 1.028-.87 1.376-.587.348-1.458.538-2.535.538-1.077 0-1.916-.175-2.502-.538-.586-.364-.839-.791-.839-1.376v-.206h-2.043zm70.014-5.743v-.822h-.206l-.222.585-.221-.585h-.19v.822h.11v-.68l.27.68h.079l.253-.68v.68zm-53.496 1.851V19.33h-2.138v-3.765h-1.996v9.333c0 1.361.412 2.485 1.22 3.323a4.204 4.204 0 002.724 1.234l.19.016v-1.93l-.143-.016a2.296 2.296 0 01-1.33-.68c-.444-.475-.665-1.124-.665-1.947v-3.543h2.138zm13.762.269c.411-.427 1.06-.617 1.884-.617.84 0 1.473.206 1.9.633.428.427.65 1.139.65 2.12v1.123c0 .822-.222 1.455-.681 1.946-.46.49-1.061.711-1.87.711-.807 0-1.424-.237-1.852-.71-.427-.476-.665-1.125-.665-1.947v-1.139c0-.98.222-1.693.634-2.12zm-2.63-6.059v9.302c0 1.36.412 2.484 1.22 3.323.808.838 1.916 1.265 3.31 1.265 1.393 0 2.518-.427 3.326-1.265.807-.84 1.22-1.962 1.22-3.323v-1.123c-.017-3.1-1.537-4.683-4.562-4.683-1.061 0-1.9.333-2.518.965v-4.46H40.5zm-9.565 3.766v5.441c0 1.661.301 2.88.919 3.592.586.695 1.536 1.06 2.834 1.09h.46c1.298-.03 2.249-.395 2.834-1.09.602-.728.92-1.93.92-3.592V19.33h-1.949v5.442c0 1.029-.158 1.772-.46 2.167-.3.396-.791.586-1.535.586h-.063c-.729 0-1.252-.206-1.536-.586-.301-.41-.46-1.138-.46-2.167V19.33h-1.964z"/><g transform="translate(0 .4)"><mask id="b" fill="#fff"><use xlink:href="#a"/></mask><path d="M82.435 18.866l-.222-.585h-.19v.823h.112v-.68l.268.68h.08l.253-.68v.68h.127v-.823h-.206l-.222.585zm-1.156-.49h.254v.728h.126v-.728h.254v-.095h-.634v.095zm-53.385 8.068c-.444-.475-.666-1.123-.666-1.946v-3.544h2.138V18.93h-2.138v-3.765h-1.995v9.334c0 1.36.412 2.484 1.22 3.322a4.209 4.209 0 002.724 1.234l.19.016v-1.93l-.143-.015a2.295 2.295 0 01-1.33-.68zm-6.81-4.984l-4.799-1.597a1.962 1.962 0 01-.76-.444.767.767 0 01-.269-.537v-.317c0-1.123.935-1.692 2.85-1.723h.175c1.916 0 2.898.506 3.009 1.534l.016.158h2.059v-.174c-.095-2.342-1.806-3.544-5.084-3.544h-.206c-3.215.032-4.83 1.298-4.83 3.75v.316a2.766 2.766 0 00.633 1.788c.412.49 1.03.87 1.805 1.123l4.752 1.598c.807.268 1.203.712 1.203 1.376v.285c0 .585-.285 1.028-.871 1.376-.586.348-1.457.537-2.533.537-1.078 0-1.917-.173-2.503-.537-.586-.364-.84-.791-.84-1.376v-.206H12.85v.206a3.432 3.432 0 001.44 2.879c.951.696 2.265 1.06 3.945 1.06 1.678 0 3.04-.348 3.975-1.06a3.392 3.392 0 001.44-2.879v-.285a3.21 3.21 0 00-.696-2.072 4.01 4.01 0 00-1.87-1.235zm48.08 2.912c0 1.028-.158 1.755-.459 2.167-.285.38-.792.585-1.52.585h-.096c-.728 0-1.25-.206-1.536-.585-.3-.412-.459-1.14-.459-2.167v-5.443H63.13v5.443c0 1.66.302 2.878.919 3.59.586.696 1.536 1.06 2.835 1.092h.475c1.298-.031 2.248-.396 2.834-1.091.587-.696.92-1.93.92-3.591v-5.443h-1.964v5.443h.015zm-32.211 0c0 1.028-.16 1.771-.46 2.167-.301.395-.792.585-1.536.585h-.063c-.729 0-1.252-.206-1.537-.585-.3-.412-.459-1.14-.459-2.167v-5.443h-1.964v5.443c0 1.66.3 2.878.919 3.59.586.696 1.536 1.06 2.835 1.092h.46c1.297-.031 2.248-.396 2.833-1.091.602-.728.92-1.93.92-3.591v-5.443h-1.948v5.443zm40.272-3.766c.84 0 1.473.206 1.9.633.428.427.65 1.14.65 2.12v1.123c0 .807-.222 1.47-.681 1.946-.46.474-1.077.712-1.87.712-.79 0-1.424-.238-1.852-.712-.428-.475-.665-1.123-.665-1.946v-1.139c0-.98.221-1.693.634-2.12.411-.427 1.06-.617 1.884-.617zm0-1.945c-1.061 0-1.9.332-2.518.964v-4.46H72.71v9.301c0 1.361.413 2.484 1.22 3.322.808.84 1.916 1.266 3.31 1.266 1.394 0 2.518-.427 3.325-1.266.808-.838 1.22-1.96 1.22-3.322v-1.123c-.016-3.1-1.552-4.682-4.561-4.682zm-17.72 2.23h-6.32v-5.758h-2.059v13.81h2.059V22.9h6.32v6.043h2.073v-13.81h-2.074v5.758zm-14.492-.285c.84 0 1.473.206 1.9.633.428.427.65 1.14.65 2.12v1.123c0 .823-.222 1.456-.681 1.946-.46.49-1.061.712-1.869.712-.807 0-1.425-.238-1.853-.712-.427-.475-.665-1.123-.665-1.946v-1.139c0-.98.222-1.693.634-2.12.411-.427 1.06-.617 1.884-.617zm0-1.945c-1.06 0-1.9.332-2.518.964v-4.46H40.5v9.301c0 1.361.413 2.484 1.22 3.322.808.84 1.916 1.266 3.31 1.266 1.394 0 2.518-.427 3.326-1.266.807-.838 1.22-1.96 1.22-3.322v-1.123c-.017-3.1-1.537-4.682-4.562-4.682zM1.953 41.599c-.475.19-.744-.047-.586-.538l1.346-4.35a5.06 5.06 0 00.175-1.82L.006 7.46a.9.9 0 01.8-.993l.039-.003L94.788.167a.792.792 0 01.856.87l-3.817 41.528a.98.98 0 01-1.03.87L10.98 38.308a4.706 4.706 0 00-1.805.3L1.953 41.6z" fill="#3F1D74" mask="url(#b)"/></g></g></svg>